<?xml version="1.0" encoding="UTF-8" standalone="no"?>
<!-- Created with Inkscape (http://www.inkscape.org/) -->

<svg
   xmlns:dc="http://purl.org/dc/elements/1.1/"
   xmlns:cc="http://creativecommons.org/ns#"
   xmlns:rdf="http://www.w3.org/1999/02/22-rdf-syntax-ns#"
   xmlns:svg="http://www.w3.org/2000/svg"
   xmlns="http://www.w3.org/2000/svg"
   xmlns:sodipodi="http://sodipodi.sourceforge.net/DTD/sodipodi-0.dtd"
   xmlns:inkscape="http://www.inkscape.org/namespaces/inkscape"
   width="210mm"
   height="297mm"
   viewBox="0 0 210 297"
   version="1.1"
   id="svg848"
   inkscape:version="0.92.2 5c3e80d, 2017-08-06"
   sodipodi:docname="filtering_brand.svg">
  <defs
     id="defs842" />
  <sodipodi:namedview
     id="base"
     pagecolor="#ffffff"
     bordercolor="#666666"
     borderopacity="1.0"
     inkscape:pageopacity="0.0"
     inkscape:pageshadow="2"
     inkscape:zoom="0.42426407"
     inkscape:cx="-54.80577"
     inkscape:cy="1048.538"
     inkscape:document-units="mm"
     inkscape:current-layer="layer1"
     showgrid="false"
     inkscape:window-width="1680"
     inkscape:window-height="1005"
     inkscape:window-x="0"
     inkscape:window-y="1"
     inkscape:window-maximized="1" />
  <metadata
     id="metadata845">
    <rdf:RDF>
      <cc:Work
         rdf:about="">
        <dc:format>image/svg+xml</dc:format>
        <dc:type
           rdf:resource="http://purl.org/dc/dcmitype/StillImage" />
        <dc:title />
      </cc:Work>
    </rdf:RDF>
  </metadata>
  <g
     inkscape:label="Layer 1"
     inkscape:groupmode="layer"
     id="layer1">
    <text
       xml:space="preserve"
       style="font-style:normal;font-variant:normal;font-weight:normal;font-stretch:normal;font-size:28.13729286px;line-height:1.25;font-family:Inconsolata;-inkscape-font-specification:Inconsolata;letter-spacing:0px;word-spacing:0px;fill:#7fea9c;fill-opacity:1;stroke:none;stroke-width:0.70343226"
       x="-111.89101"
       y="51.674347"
       id="text814"><tspan
         sodipodi:role="line"
         id="tspan812"
         x="-111.89101"
         y="51.674347"
         style="fill:#7fea9c;fill-opacity:1;stroke-width:0.70343226">regexp <tspan
   style="fill:#808080;stroke-width:0.70343226"
   id="tspan969">=</tspan> r<tspan
   style="fill:#000000;stroke-width:0.70343226"
   id="tspan971">&quot;\b(Orig)|(\[.*?\])&quot;</tspan></tspan></text>
    <text
       xml:space="preserve"
       style="font-style:normal;font-variant:normal;font-weight:normal;font-stretch:normal;font-size:13.8377409px;line-height:1.25;font-family:Inconsolata;-inkscape-font-specification:Inconsolata;letter-spacing:0px;word-spacing:0px;fill:#000000;fill-opacity:1;stroke:none;stroke-width:0.34594351"
       x="-64.85154"
       y="89.280922"
       id="text979"><tspan
         sodipodi:role="line"
         id="tspan977"
         x="-64.85154"
         y="89.280922"
         style="stroke-width:0.34594351">Beggining of word</tspan></text>
    <text
       id="text983"
       y="13.433701"
       x="74.823402"
       style="font-style:normal;font-variant:normal;font-weight:normal;font-stretch:normal;font-size:13.8377409px;line-height:1.25;font-family:Inconsolata;-inkscape-font-specification:Inconsolata;letter-spacing:0px;word-spacing:0px;fill:#000000;fill-opacity:1;stroke:none;stroke-width:0.34594351"
       xml:space="preserve"><tspan
         style="stroke-width:0.34594351"
         y="13.433701"
         x="74.823402"
         id="tspan981"
         sodipodi:role="line">Either left or right matches</tspan></text>
    <text
       id="text991"
       y="89.280922"
       x="204.72397"
       style="font-style:normal;font-variant:normal;font-weight:normal;font-stretch:normal;font-size:13.8377409px;line-height:1.25;font-family:Inconsolata;-inkscape-font-specification:Inconsolata;letter-spacing:0px;word-spacing:0px;fill:#000000;fill-opacity:1;stroke:none;stroke-width:0.34594351"
       xml:space="preserve"><tspan
         style="stroke-width:0.34594351"
         y="89.280922"
         x="204.72397"
         id="tspan989"
         sodipodi:role="line">Anything inside </tspan><tspan
         style="stroke-width:0.34594351"
         y="106.57809"
         x="204.72397"
         sodipodi:role="line"
         id="tspan841">square bracket</tspan></text>
    <path
       style="opacity:0.95999995;vector-effect:none;fill:#000000;fill-opacity:1;stroke:none;stroke-width:2;stroke-linecap:butt;stroke-linejoin:miter;stroke-miterlimit:4;stroke-dasharray:none;stroke-dashoffset:0;stroke-opacity:1;paint-order:stroke fill markers"
       id="path993"
       d="m 41.316132,50.935924 c -0.984623,1.208138 -1.556756,2.63652 -1.954554,4.125658 -0.234188,0.958199 -0.38344,1.902878 0.01148,2.828645 0.349038,0.672118 1.095996,1.00431 1.751777,1.328991 0.619532,0.257024 1.281147,0.309155 1.942909,0.336312 0.623975,0.01257 1.248185,0.0069 1.872221,0.0019 0.538356,-0.0053 1.076767,-0.006 1.615146,-0.0049 0.718244,0.202734 1.213403,0.599847 1.657787,1.189106 0.610354,1.04384 1.019492,2.183127 1.389335,3.329411 0.416287,1.36107 0.553019,2.777363 0.649118,4.190196 0.03976,1.125082 0.103344,2.256207 -0.01868,3.377067 -0.115472,0.958686 -0.520059,1.846681 -0.903126,2.723277 -0.07498,0.170706 -0.158041,0.339127 -0.225676,0.512247 -4.021325,1.698622 -3.578386,2.021615 -3.085891,-0.701437 0.323623,-1.40344 0.799703,-2.761136 1.370002,-4.081267 0.384575,-1.083469 0.903568,-2.073032 1.73401,-2.872684 1.943156,-1.417225 4.014814,-2.780761 6.29071,-3.588785 1.024985,-0.356695 1.95168,-0.291401 2.958232,0.06736 0.984552,0.41933 2.001663,0.657773 3.061454,0.77094 1.881068,0.29685 5.389785,-2.018485 0.344165,0.847085 1.407194,-0.850641 2.828684,-1.678234 4.184785,-2.609485 0.781968,-0.595251 1.596916,-1.253675 1.858486,-2.230795 -0.0035,-1.847865 -0.05653,-3.127218 0.89431,-4.781867 1.369393,-1.51176 3.085698,-2.195888 4.950957,-3.203265 0.387533,-0.209299 0.88396,-0.343009 1.320189,-0.308108 0,0 -3.001137,2.197529 -3.001137,2.197529 v 0 c -0.31683,0.06048 -0.280408,0.04279 -0.664173,0.18937 -0.17961,0.0686 -0.693309,0.327636 -0.531807,0.223319 4.948645,-3.196434 2.250374,-1.399193 1.285841,-0.581308 -1.076394,1.59349 -1.015588,2.78851 -0.929159,4.644369 -0.126656,1.140777 -0.899567,1.805688 -1.7604,2.499894 -1.328465,0.973066 -2.777283,1.764694 -4.169867,2.640328 -2.254232,1.287891 -4.149659,2.921971 -6.798633,2.609974 -1.072462,-0.142359 -2.095204,-0.429138 -3.101401,-0.828728 -0.970992,-0.272661 -1.863685,-0.244171 -2.811124,0.13449 -1.202954,0.497528 -3.201971,1.723782 1.57225,-1.059674 0.35601,-0.207561 -0.71936,0.403658 -1.063699,0.630049 -0.161285,0.106037 -0.309523,0.230693 -0.464283,0.346041 -0.897102,0.702064 -1.441964,1.655281 -1.810327,2.727534 -0.572252,1.297368 -1.0653,2.617626 -1.401739,3.999349 -0.48854,2.860966 0.268272,1.680419 -3.65411,3.829116 0.109601,-0.141372 0.186799,-0.313891 0.266258,-0.476875 0.40036,-0.843512 0.825355,-1.7073 0.972884,-2.634048 0.167492,-1.095248 0.06211,-2.210459 0.05076,-3.315126 -0.07096,-1.386044 -0.195696,-2.776183 -0.596265,-4.112183 -0.360071,-1.103853 -0.754173,-2.203106 -1.346461,-3.207055 -0.38457,-0.481959 -0.844453,-0.844798 -1.480402,-0.900197 -0.53811,0.0024 -1.076222,0.004 -1.614329,0.0062 -0.628547,0.0016 -1.257589,0.01061 -1.885601,-0.02148 -0.697778,-0.05289 -1.388927,-0.156152 -2.025332,-0.467045 -0.724019,-0.384832 -1.508382,-0.778055 -1.879746,-1.547522 -0.449585,-1.001056 -0.365093,-2.004592 -0.108103,-3.057969 0.394975,-1.517875 0.924798,-2.990043 1.876406,-4.259369 0,0 3.404539,-1.454549 3.404539,-1.454549 z"
       inkscape:connector-curvature="0" />
    <path
       style="opacity:0.95999995;vector-effect:none;fill:#000000;fill-opacity:1;stroke:none;stroke-width:2;stroke-linecap:butt;stroke-linejoin:miter;stroke-miterlimit:4;stroke-dasharray:none;stroke-dashoffset:0;stroke-opacity:1;paint-order:stroke fill markers"
       id="path1011"
       d="m 148.81591,30.880745 c -0.18019,-1.129614 0.036,-2.226421 0.43185,-3.28264 0.73906,-1.558175 1.50772,-1.739637 3.10941,-2.6078 0.88829,-0.202357 1.80556,-0.01703 2.70067,0.05827 1.44177,0.167612 2.74248,-0.102398 4.06278,-0.665516 -0.32377,0.181997 -0.61897,0.428498 -0.97131,0.54599 -0.20818,0.06942 0.35623,-0.256975 0.52505,-0.397181 0.6319,-0.524783 1.05594,-1.148007 1.44387,-1.862778 0.47613,-0.99258 0.64273,-2.07456 0.84328,-3.144133 0.12376,-0.620582 0.2396,-1.242619 0.32187,-1.870167 0.0128,-0.07814 0.0168,-0.182411 0.0317,-0.253817 0.55342,-0.243533 1.08485,-0.54489 1.66026,-0.7306 0.0623,-0.0201 7.9e-4,0.131023 -0.005,0.196229 -0.008,0.09982 -0.0228,0.199023 -0.0362,0.298272 -0.0613,0.452858 -0.11889,0.901996 -0.16231,1.357232 -0.0612,1.146415 -0.2001,2.304788 -0.002,3.443058 0.26377,0.827111 0.36457,1.143738 1.26691,1.183869 0.82378,-0.116333 1.6017,-0.432007 2.41459,-0.6107 1.04644,-0.265594 1.81333,0.395325 2.56252,1.030282 1.2256,1.091271 2.31618,2.32157 3.32942,3.609361 0.68355,0.90487 1.38234,1.797868 2.11071,2.667112 0.63211,0.319968 0.30358,0.111357 -1.43014,0.840279 -0.0642,0.02698 0.082,-0.112673 0.11833,-0.172072 0.2566,-0.419925 0.53977,-0.79635 0.76228,-1.237247 0,0 1.66394,-0.757962 1.66394,-0.757962 v 0 c -0.0701,0.161282 -0.11924,0.333467 -0.21045,0.483849 -0.33773,0.556807 -0.29815,0.235394 -0.53229,0.740619 -0.0372,0.0802 0.002,0.207327 -0.072,0.255251 -1.64474,1.061133 -1.24289,1.312016 -1.88324,0.795404 -0.70141,-0.889733 -1.3954,-1.7852 -2.07369,-2.692742 -1.00501,-1.280554 -2.09297,-2.498883 -3.32453,-3.567723 -0.74876,-0.61213 -1.47094,-1.171124 -2.48438,-0.880162 -0.81598,0.192908 -1.60783,0.526702 -2.45087,0.566483 -0.9111,-0.113993 -1.13561,-0.550874 -1.38408,-1.394491 -0.20232,-1.154007 -0.0682,-2.324089 -0.0152,-3.487515 0.0422,-0.54535 0.13593,-1.085755 0.17957,-1.629464 0.005,-0.0648 -0.0554,-0.157811 -0.002,-0.195007 0.52583,-0.366862 1.10943,-0.643037 1.66414,-0.964555 0.002,0.09538 -0.0156,0.191604 -0.0295,0.286678 -0.0957,0.633965 -0.21318,1.263909 -0.34451,1.891458 -0.2132,1.081233 -0.36103,2.1804 -0.82365,3.194866 -0.99647,1.926191 -2.07038,2.554696 -4.08492,3.583715 -1.32401,0.525877 -2.69629,0.774066 -4.12451,0.604104 -0.88392,-0.07315 -1.8009,-0.250909 -2.66635,0.0198 2.63676,-1.620576 1.16812,-0.824989 0.76963,-0.4091 -0.31261,0.326261 -0.55979,0.715887 -0.77312,1.11128 -0.41171,1.017751 -0.65564,2.087552 -0.45144,3.18716 0,0 -1.63545,0.862748 -1.63545,0.862748 z"
       inkscape:connector-curvature="0" />
    <path
       style="opacity:0.95999995;vector-effect:none;fill:#000000;fill-opacity:1;stroke:none;stroke-width:2;stroke-linecap:butt;stroke-linejoin:miter;stroke-miterlimit:4;stroke-dasharray:none;stroke-dashoffset:0;stroke-opacity:1;paint-order:stroke fill markers"
       id="path1015"
       d="m 188.56766,52.9509 c 0.2896,1.325036 0.92533,2.555127 1.54286,3.753364 0.65371,1.113951 1.38395,2.210215 2.36271,3.069307 0.62231,0.546227 0.96604,0.720108 1.66691,1.156385 2.01831,1.122801 4.29624,1.521822 6.56063,1.787826 2.26868,0.217178 4.5499,0.220171 6.82667,0.227759 2.81024,-0.0095 5.61487,-0.191423 8.42566,-0.189193 2.80695,0.02887 5.60774,0.440812 8.26027,1.379096 0.50053,0.177054 0.98554,0.395234 1.47831,0.592849 2.48215,1.130879 4.1679,2.356638 5.71523,4.595503 0.69552,1.182272 0.98653,2.504509 1.10738,3.854429 0.0613,0.137861 -0.0456,0.922456 0.0675,0.993068 -0.0494,-0.663313 0.0263,-0.02064 -1.50793,0.724395 -0.11784,0.05722 0.1491,-0.215471 0.22053,-0.325279 0.25042,-0.384966 0.0629,-0.06929 0.31074,-0.508296 0.43383,-0.759786 0.84385,-1.531162 1.25338,-2.304341 0.56144,-1.031095 1.17358,-2.033863 1.76987,-3.045045 0.78378,-1.390232 1.84573,-2.545267 3.0829,-3.537873 1.40782,-0.899223 2.83367,-1.812311 4.48088,-2.175454 0.7005,-0.154435 1.09213,-0.176247 1.81243,-0.254582 2.40655,-0.217755 4.82034,-0.0909 7.22892,0.0039 2.76975,0.09636 5.54151,0.190458 8.3129,0.133676 2.64518,-0.05349 5.2844,-0.221753 7.92526,-0.369007 2.46507,-0.133059 4.93356,-0.174873 7.40167,-0.200623 1.85973,-0.03662 3.70628,-0.189534 5.47428,-0.788498 -0.47844,0.304565 1.8665,-0.844438 1.38343,-0.672504 -0.33851,0.120491 -0.60817,0.441933 -0.96557,0.479274 -0.22167,0.02315 0.34986,-0.277347 0.51062,-0.431737 0.41235,-0.396007 0.43074,-0.480787 0.7358,-0.948388 0.63633,-1.296911 0.6072,-2.781083 0.64093,-4.193169 -0.0369,-1.199187 -0.0188,-2.365378 0.38119,-3.504026 0,0 1.65576,-0.770249 1.65576,-0.770249 v 0 c -0.44524,1.117536 -0.47554,2.266288 -0.43127,3.460567 -0.0285,1.43451 0.0169,2.935314 -0.57984,4.271775 -0.10353,0.172778 -0.19293,0.354843 -0.31059,0.518332 -1.0323,1.434568 -2.86454,2.20927 -4.44508,2.895422 -1.77938,0.558231 -3.62709,0.706993 -5.48685,0.729491 -2.46219,0.02167 -4.92482,0.06221 -7.38383,0.197768 -2.64066,0.149008 -5.28012,0.312222 -7.9253,0.360876 -2.77387,0.0468 -5.54766,-0.04421 -8.31977,-0.141052 -2.41264,-0.08973 -4.83164,-0.203108 -7.24021,0.03818 -0.88158,0.10866 -1.74169,0.220287 -2.58574,0.512596 -0.25127,0.08702 -0.8441,0.542968 -0.73982,0.29836 0.12939,-0.30353 0.58518,-0.315047 0.83755,-0.527608 0.20476,-0.172469 -0.46204,0.270603 -0.69305,0.405905 -1.24441,0.96556 -2.31877,2.091963 -3.10081,3.472413 -0.58907,1.008319 -1.19263,2.008923 -1.75698,3.031165 -0.41226,0.76722 -0.80196,1.545595 -1.24159,2.29776 -0.35758,0.731875 -1.3836,2.40724 -2.29908,1.834317 -0.23671,-0.304094 -0.021,-0.759524 -0.10087,-1.116055 -0.0894,-1.326129 -0.35017,-2.626582 -1.02481,-3.791929 -1.50573,-2.219476 -3.17095,-3.422311 -5.61545,-4.535172 -0.4885,-0.194818 -0.96928,-0.410229 -1.46549,-0.584457 -2.64451,-0.928537 -5.43726,-1.315829 -8.23247,-1.334831 -2.82194,0.01217 -5.63759,0.202147 -8.4592,0.212439 -2.27922,-0.0077 -4.56311,-0.01683 -6.83303,-0.248491 -2.28688,-0.279215 -4.58506,-0.696177 -6.61715,-1.844249 -0.7138,-0.451001 -1.05662,-0.626981 -1.69079,-1.189337 -0.98788,-0.876001 -1.72863,-1.986211 -2.399,-3.111492 -0.63082,-1.212167 -1.27021,-2.449533 -1.61771,-3.777292 0,0 1.63613,-0.867979 1.63613,-0.867979 z"
       inkscape:connector-curvature="0" />
    <path
       style="opacity:0.95999995;vector-effect:none;fill:#ff0000;fill-opacity:1;stroke:none;stroke-width:2;stroke-linecap:butt;stroke-linejoin:miter;stroke-miterlimit:4;stroke-dasharray:none;stroke-dashoffset:0;stroke-opacity:1;paint-order:stroke fill markers"
       id="path1019"
       d="m 80.672201,55.517756 c 0.68957,1.705959 1.948659,2.989461 3.420716,4.041886 2.483183,1.631074 5.078941,1.721191 7.950641,1.587719 3.949378,-0.411591 7.845113,-1.181706 11.790222,-1.6369 2.30217,-0.163269 4.65403,0.01111 6.81627,0.879605 1.04169,0.418409 1.69837,0.874469 2.6489,1.456057 1.97256,1.404168 3.9069,2.862432 5.80951,4.359987 0.50369,0.405826 1.01718,0.800174 1.51058,1.218671 0.0967,0.159274 0.10409,0.332425 0.0953,0.511619 -0.009,0.04772 -0.003,0.08761 0.011,0.132638 -0.77348,0.293336 -1.52982,0.63658 -2.32043,0.880007 -0.0711,0.02191 0.0715,-0.130627 0.10402,-0.197572 0.045,-0.09265 0.0797,-0.190328 0.12849,-0.281048 0.26749,-0.497335 0.62018,-0.926611 0.97267,-1.364584 1.92926,-1.850109 4.43212,-3.217862 7.02129,-3.899283 0.52597,-0.138425 1.06273,-0.231984 1.59409,-0.347975 4.85368,-0.705419 9.77317,-0.532519 14.66098,-0.464833 3.85338,0.0076 7.747,0.294642 11.5743,-0.307928 0.65092,-0.102478 1.29198,-0.2599 1.93798,-0.38985 2.25215,-0.679569 1.19485,-0.269163 3.21535,-1.216811 0.32765,-0.153675 -0.80274,0.774176 -0.98321,0.460484 -0.18734,-0.325647 0.56473,-0.505622 0.78018,-0.813398 0.46067,-0.658106 0.33997,-0.756637 0.26495,-1.444133 -0.23007,-0.542888 -0.58663,-0.820793 -1.09923,-1.054457 0,0 2.18424,-1.430875 2.18424,-1.430875 v 0 c 0.5444,0.321519 0.95185,0.672767 1.20314,1.281528 0.0393,0.261517 0.14964,0.521999 0.11795,0.784551 -0.0783,0.64871 -0.58187,1.393788 -1.09593,1.755965 -2.0722,1.459958 -4.12182,2.595129 -6.56713,3.17463 -0.64723,0.122531 -1.28999,0.27169 -1.94169,0.367596 -3.82725,0.563234 -7.71249,0.269012 -11.56168,0.260374 -4.89742,-0.0684 -9.83573,-0.244594 -14.6879,0.557866 -1.30203,0.307154 -1.75409,0.360804 -2.97118,0.842502 -0.39479,0.156252 -1.30344,0.934191 -1.15539,0.536244 0.16652,-0.447617 0.78903,-0.551056 1.22954,-0.735555 0.52617,-0.220377 -1.80208,1.105765 -1.33745,1.067705 -0.341,0.413155 -0.70138,0.826892 -0.97135,1.293011 -0.0499,0.0862 -0.0898,0.17808 -0.12736,0.270327 -0.0319,0.07819 -0.007,0.199395 -0.0806,0.240104 -0.81708,0.449781 -1.68622,0.797716 -2.52932,1.196576 0.0319,0.0421 0.0219,0.04343 0.0537,0.0034 0.026,-0.09038 0.0426,-0.181573 0.0387,-0.276466 -0.46584,-0.433231 -0.96274,-0.831958 -1.44898,-1.241565 -1.86525,-1.518097 -3.78468,-2.971226 -5.74758,-4.360474 -0.95092,-0.573659 -1.5692,-1.001485 -2.61004,-1.409509 -2.13946,-0.838708 -4.4584,-0.986578 -6.72753,-0.813231 -3.953876,0.462817 -7.858819,1.243885 -11.82023,1.636564 -2.99648,0.119398 -5.501764,-0.0059 -8.086018,-1.699906 -1.501889,-1.093041 -2.784986,-2.406366 -3.542435,-4.131918 0,0 2.277914,-1.279345 2.277914,-1.279345 z"
       inkscape:connector-curvature="0" />
    <text
       id="text1023"
       y="88.657295"
       x="58.988255"
       style="font-style:normal;font-variant:normal;font-weight:normal;font-stretch:normal;font-size:13.8377409px;line-height:1.25;font-family:Inconsolata;-inkscape-font-specification:Inconsolata;letter-spacing:0px;word-spacing:0px;fill:#ff0000;fill-opacity:1;stroke:none;stroke-width:0.34594351"
       xml:space="preserve"><tspan
         style="fill:#ff0000;stroke-width:0.34594351"
         y="88.657295"
         x="58.988255"
         id="tspan1021"
         sodipodi:role="line">(...) Defines a </tspan><tspan
         style="fill:#ff0000;stroke-width:0.34594351"
         y="105.95447"
         x="58.988255"
         sodipodi:role="line"
         id="tspan839">group of characters</tspan></text>
    <path
       style="opacity:0.95999995;vector-effect:none;fill:#7fea9c;fill-opacity:1;stroke:none;stroke-width:2;stroke-linecap:butt;stroke-linejoin:miter;stroke-miterlimit:4;stroke-dasharray:none;stroke-dashoffset:0;stroke-opacity:1;paint-order:stroke fill markers"
       id="path831"
       d="m 10.696582,39.769489 c -0.179884,-1.048946 -0.29038,-2.083599 -0.101619,-3.135903 0.138167,-0.734571 0.381932,-1.417844 0.866096,-1.992413 1.830602,-1.674603 2.392869,-1.825784 4.142394,-1.250273 0.797189,0.40925 1.64574,0.64874 2.523526,0.802701 0.894472,-0.04898 2.568974,-0.992296 -1.3529,0.957443 -0.102095,0.05076 0.1763,-0.145918 0.252529,-0.230706 0.23656,-0.263115 0.244671,-0.35056 0.397228,-0.680617 0.309731,-0.917316 0.346497,-1.891536 0.376236,-2.850491 0.0091,-0.548524 0.0076,-1.097241 -0.0052,-1.645687 -0.0023,-0.08679 -0.0053,-0.173699 -0.0082,-0.26043 3.33116,-1.663758 1.974,-1.46848 2.497407,0.117512 0.293445,0.868815 0.798022,1.651148 1.433748,2.307262 0.421207,0.341143 0.842476,0.548783 1.358341,0.280691 0.135375,-0.07035 0.521188,-0.316648 0.385985,-0.245964 -0.607685,0.31769 -1.203058,0.658397 -1.804587,0.987594 1.470692,-1.172932 3.030784,-2.731738 5.011818,-2.661772 1.276792,0.06711 2.341012,0.702942 3.341722,1.441302 0.925605,0.758783 1.368232,1.868681 1.747689,2.968768 0.03635,0.09816 0.0727,0.196321 0.109046,0.294484 0,0 -2.292864,1.266949 -2.292864,1.266949 v 0 c -0.03323,-0.101256 -0.06646,-0.202512 -0.09969,-0.303768 -0.340966,-1.059347 -0.761823,-2.118611 -1.654786,-2.836746 -0.977268,-0.703808 -2.013562,-1.291323 -3.255092,-1.297985 -1.070351,0.07098 -2.351694,0.916866 0.81331,-0.859602 0.155015,-0.08701 -0.29984,0.191558 -0.442747,0.297283 -0.32075,0.237294 -0.562204,0.465696 -0.85924,0.731298 -0.881786,0.53585 -1.755282,1.085585 -2.645357,1.607552 -0.711631,0.41732 -1.360742,0.214257 -1.942696,-0.312682 -0.643072,-0.696285 -1.17844,-1.501293 -1.492829,-2.400482 -0.635539,-1.74399 0.06222,-1.431332 2.141824,-2.594277 0.0032,0.09144 0.0021,0.183129 0.0023,0.274672 3.2e-5,0.555824 0.0016,1.1117 -0.01401,1.667373 -0.02634,0.984385 -0.06373,1.979094 -0.333612,2.932721 -0.529259,1.504323 -2.183938,2.655728 -3.807659,2.544519 -0.880462,-0.177874 -1.72393,-0.45167 -2.540437,-0.829466 -0.219236,-0.06717 -0.513416,-0.168 -0.745204,-0.19975 -0.479864,-0.06573 -0.677695,0.09223 -0.595686,0.03829 1.002816,-0.65963 2.799,-1.616657 1.778171,-1.070319 -0.529368,0.512522 -0.802082,1.146183 -0.941831,1.868736 -0.231117,1.017365 -0.131507,2.026899 0.07072,3.044682 0,0 -2.31384,1.227506 -2.31384,1.227506 z"
       inkscape:connector-curvature="0" />
    <text
       xml:space="preserve"
       style="font-style:normal;font-variant:normal;font-weight:normal;font-stretch:normal;font-size:13.8377409px;line-height:1.25;font-family:Inconsolata;-inkscape-font-specification:Inconsolata;letter-spacing:0px;word-spacing:0px;fill:#7fea9c;fill-opacity:1;stroke:none;stroke-width:0.34594351"
       x="40.058731"
       y="-15.121156"
       id="text835"><tspan
         sodipodi:role="line"
         id="tspan833"
         x="46.977585"
         y="-15.121156"
         style="font-style:normal;font-variant:normal;font-weight:normal;font-stretch:normal;font-size:13.83770752px;font-family:Inconsolata;-inkscape-font-specification:'Inconsolata, Normal';font-variant-ligatures:normal;font-variant-caps:normal;font-variant-numeric:normal;font-feature-settings:normal;text-align:end;writing-mode:lr-tb;text-anchor:end;fill:#7fea9c;fill-opacity:1;stroke-width:0.34594351">Special character, </tspan><tspan
         sodipodi:role="line"
         x="40.058731"
         y="2.1760204"
         style="font-style:normal;font-variant:normal;font-weight:normal;font-stretch:normal;font-size:13.83770752px;font-family:Inconsolata;-inkscape-font-specification:'Inconsolata, Normal';font-variant-ligatures:normal;font-variant-caps:normal;font-variant-numeric:normal;font-feature-settings:normal;text-align:end;writing-mode:lr-tb;text-anchor:end;fill:#7fea9c;fill-opacity:1;stroke-width:0.34594351"
         id="tspan838">so  backslash</tspan><tspan
         sodipodi:role="line"
         x="40.058731"
         y="19.473196"
         style="font-style:normal;font-variant:normal;font-weight:normal;font-stretch:normal;font-size:13.83770752px;font-family:Inconsolata;-inkscape-font-specification:'Inconsolata, Normal';font-variant-ligatures:normal;font-variant-caps:normal;font-variant-numeric:normal;font-feature-settings:normal;text-align:end;writing-mode:lr-tb;text-anchor:end;fill:#7fea9c;fill-opacity:1;stroke-width:0.34594351"
         id="tspan837">remains a backslash</tspan></text>
  </g>
</svg>
