<?xml version="1.0" encoding="UTF-8" standalone="no"?>
<!-- Created with Inkscape (http://www.inkscape.org/) -->

<svg
   xmlns:dc="http://purl.org/dc/elements/1.1/"
   xmlns:cc="http://creativecommons.org/ns#"
   xmlns:rdf="http://www.w3.org/1999/02/22-rdf-syntax-ns#"
   xmlns:svg="http://www.w3.org/2000/svg"
   xmlns="http://www.w3.org/2000/svg"
   xmlns:sodipodi="http://sodipodi.sourceforge.net/DTD/sodipodi-0.dtd"
   xmlns:inkscape="http://www.inkscape.org/namespaces/inkscape"
   width="210mm"
   height="297mm"
   viewBox="0 0 210 297"
   version="1.1"
   id="svg848"
   inkscape:version="0.92.2 5c3e80d, 2017-08-06"
   sodipodi:docname="groups.svg">
  <defs
     id="defs842" />
  <sodipodi:namedview
     id="base"
     pagecolor="#ffffff"
     bordercolor="#666666"
     borderopacity="1.0"
     inkscape:pageopacity="0.0"
     inkscape:pageshadow="2"
     inkscape:zoom="0.6"
     inkscape:cx="198.33333"
     inkscape:cy="585"
     inkscape:document-units="mm"
     inkscape:current-layer="layer1"
     showgrid="false"
     inkscape:window-width="1680"
     inkscape:window-height="1005"
     inkscape:window-x="0"
     inkscape:window-y="1"
     inkscape:window-maximized="1" />
  <metadata
     id="metadata845">
    <rdf:RDF>
      <cc:Work
         rdf:about="">
        <dc:format>image/svg+xml</dc:format>
        <dc:type
           rdf:resource="http://purl.org/dc/dcmitype/StillImage" />
        <dc:title />
      </cc:Work>
    </rdf:RDF>
  </metadata>
  <g
     inkscape:label="Layer 1"
     inkscape:groupmode="layer"
     id="layer1">
    <text
       xml:space="preserve"
       style="font-style:normal;font-variant:normal;font-weight:normal;font-stretch:normal;font-size:19.57942772px;line-height:1.25;font-family:Inconsolata;-inkscape-font-specification:Inconsolata;letter-spacing:0px;word-spacing:0px;fill:#000000;fill-opacity:1;stroke:none;stroke-width:0.48948568"
       x="-11.857243"
       y="70.370438"
       id="text814"><tspan
         sodipodi:role="line"
         id="tspan812"
         x="-11.857243"
         y="70.370438"
         style="stroke-width:0.48948568">((\d{2,4})(\s)?([km]hz))</tspan></text>
    <path
       style="opacity:0.95999995;vector-effect:none;fill:#ff0000;fill-opacity:1;stroke:none;stroke-width:2;stroke-linecap:butt;stroke-linejoin:miter;stroke-miterlimit:4;stroke-dasharray:none;stroke-dashoffset:0;stroke-opacity:1;paint-order:stroke fill markers"
       id="path816"
       d="m -2.8016112,72.266939 c 0.081326,1.234768 0.2518121,2.457511 0.5857477,3.649583 0.3467382,0.950717 0.8952416,1.743162 1.62177195,2.435254 0.92193607,0.645493 1.95603995,1.089824 3.02320565,1.430787 1.1421735,0.303284 2.3254306,0.347959 3.4999372,0.377772 1.4060503,0.0066 2.8135566,0.05522 4.2165527,-0.04766 2.104784,-0.321598 4.201601,-0.6849 6.303855,-1.02444 2.753314,-0.461338 5.546034,-0.550463 8.330815,-0.619969 3.312612,-0.06655 6.629543,-0.129487 9.924217,0.261096 2.339324,0.391602 4.455808,1.365271 5.99881,3.206263 0.285848,0.341051 0.525219,0.718495 0.787831,1.077743 1.327399,2.094323 2.185922,4.427093 3.115398,6.712136 0.383249,0.890254 0.737896,1.79379 1.043744,2.713717 0.338381,1.0712 0.175845,0.260951 -2.274837,1.293709 -0.250746,-0.882258 -0.302967,-1.795544 -0.349962,-2.706714 -0.0031,-2.030042 0.446963,-4.024235 1.279004,-5.868741 1.350219,-2.544934 4.314465,-3.57931 6.980269,-4.211786 3.357996,-0.540099 6.715432,-1.073205 10.058119,-1.703832 3.452916,-0.642088 6.927234,-1.149051 10.404753,-1.635228 2.85156,-0.317965 5.56024,-1.114136 8.165473,-2.291463 0.482258,-0.267576 0.96452,-0.535152 1.446778,-0.80273 -0.230629,0.10097 -0.856369,0.493511 -0.691885,0.302911 0.368493,-0.427004 0.887674,-0.696066 1.33151,-1.044099 0,0 2.326339,-0.932752 2.326339,-0.932752 v 0 c -0.441656,0.35592 -0.851639,0.755198 -1.324973,1.067761 -2.255049,1.489109 -3.080186,1.903068 -5.060137,2.97231 -2.626342,1.154396 -5.352569,1.93017 -8.214466,2.23977 -3.465296,0.479173 -6.928567,0.97151 -10.366917,1.621835 -3.358418,0.631473 -6.733323,1.158589 -10.098069,1.751539 -0.391189,0.09956 -0.785919,0.186126 -1.173568,0.298688 -1.300077,0.37751 -1.613159,0.71144 0.329126,-0.531437 0.235741,-0.150852 -0.485277,0.283564 -0.701881,0.460804 -0.625994,0.51223 -0.653489,0.688006 -1.075235,1.373946 -0.870006,1.789827 -1.319012,3.750376 -1.31681,5.745644 0.05487,0.904058 0.09748,1.819998 0.390043,2.685437 -3.056913,1.759624 -2.124567,2.142402 -2.369928,1.178226 -0.263491,-0.929613 -0.608846,-1.834113 -0.9735,-2.728076 -0.899078,-2.275385 -1.741922,-4.592966 -3.061967,-6.668942 -0.256929,-0.349409 -0.49085,-0.716968 -0.77079,-1.048226 -1.514425,-1.792039 -3.602773,-2.705241 -5.885217,-3.072578 -3.289268,-0.368556 -6.597477,-0.312922 -9.902505,-0.232761 -2.787749,0.08095 -5.581828,0.192632 -8.33621,0.665858 -2.114722,0.340749 -4.220451,0.733637 -6.3426664,1.023273 -1.414268,0.0831 -2.8317732,0.05612 -4.2479806,0.03991 C 2.6308522,81.64056 1.4312744,81.579306 0.27977055,81.24183 -0.81248365,80.870186 -1.8828705,80.41266 -2.8129052,79.717579 -3.566224,78.987818 -4.1354306,78.15142 -4.4946419,77.157685 c -0.3440268,-1.211183 -0.5024355,-2.452087 -0.6412468,-3.701373 0,0 2.3342775,-1.189373 2.3342775,-1.189373 z"
       inkscape:connector-curvature="0" />
    <path
       style="opacity:0.95999995;vector-effect:none;fill:#ff0000;fill-opacity:1;stroke:none;stroke-width:2;stroke-linecap:butt;stroke-linejoin:miter;stroke-miterlimit:4;stroke-dasharray:none;stroke-dashoffset:0;stroke-opacity:1;paint-order:stroke fill markers"
       id="path822"
       d="m 83.499528,57.38931 c 0.08629,-1.558592 0.652179,-2.982762 1.438492,-4.309534 1.320691,-1.993966 3.635867,-3.329278 6.011272,-3.569634 1.837711,-0.06946 3.639455,0.390539 5.440468,0.690984 1.253072,0.177646 2.477347,0.01971 3.65031,-0.453001 0.30371,-0.122399 1.15165,-0.615056 0.88694,-0.422313 -0.40302,0.293452 -0.87105,0.485236 -1.306566,0.727853 1.687246,-1.13869 3.207806,-2.529011 4.438636,-4.150992 0.60299,-0.915411 0.92176,-1.954585 1.05162,-3.03363 0.0216,-0.190614 0.0252,-0.383212 0.0186,-0.574276 0.39455,0.769379 1.51105,-0.769109 2.31957,-1.007766 0.11176,-0.03299 -0.01,0.232878 -0.0123,0.349377 -0.004,0.159904 -0.006,0.319849 -0.008,0.479787 -0.009,0.794015 -0.0134,0.446863 0.0391,1.321274 0.0912,1.828594 0.55526,3.59896 1.32997,5.251307 0.70032,1.45963 1.852,2.261357 3.38077,2.643317 1.59492,0.307205 3.17912,-0.19645 4.73005,-0.525833 2.31891,-0.555397 4.63383,-0.33883 6.94746,0.08721 2.46121,0.629314 4.84488,1.533289 7.10744,2.684603 1.2583,0.52212 1.82418,1.782638 2.76714,2.652789 0,0 -2.22945,1.369819 -2.22945,1.369819 v 0 c -0.87614,-0.901959 -1.46293,-2.081731 -2.67706,-2.617504 -2.23855,-1.145792 -4.60028,-2.046666 -7.04853,-2.633665 -2.30837,-0.399907 -4.6119,-0.566023 -6.91339,0.01085 -1.58105,0.344392 -3.19852,0.809828 -4.81848,0.438798 -1.57284,-0.450895 -2.75751,-1.335379 -3.48057,-2.845343 -0.78774,-1.676757 -1.27628,-3.470558 -1.39028,-5.325924 -0.0518,-0.607571 -0.0672,-1.198343 -0.0702,-1.807126 -5.3e-4,-0.117483 -0.0936,-0.280024 -0.001,-0.352451 0.72359,-0.566558 1.55411,-0.981326 2.33116,-1.471988 0.007,0.01225 0.0133,0.0245 0.0199,0.03673 0.0568,0.219753 0.0212,0.450887 0.006,0.674669 -0.13411,1.119339 -0.43993,2.204919 -1.03374,3.17459 -1.21524,1.657284 -2.7416,3.062767 -4.41543,4.25082 -2.699051,1.561057 -4.562231,2.989905 -7.72148,2.541844 -1.786528,-0.30435 -3.583393,-0.749684 -5.407851,-0.621715 -0.256905,0.03894 -0.51798,0.05649 -0.770718,0.116821 -0.914418,0.218295 -1.852991,0.87815 0.811438,-0.720108 0.211108,-0.126635 -0.424614,0.252645 -0.61567,0.407889 -0.509458,0.413962 -0.625435,0.648663 -1.010579,1.179193 -0.796377,1.272582 -1.386482,2.640449 -1.461116,4.162919 0,0 -2.334276,1.189374 -2.334276,1.189374 z"
       inkscape:connector-curvature="0" />
    <path
       style="opacity:0.95999995;vector-effect:none;fill:#ff0000;fill-opacity:1;stroke:none;stroke-width:2;stroke-linecap:butt;stroke-linejoin:miter;stroke-miterlimit:4;stroke-dasharray:none;stroke-dashoffset:0;stroke-opacity:1;paint-order:stroke fill markers"
       id="path824"
       d="m 138.0848,71.7484 c 1.08122,1.531385 2.17431,3.047699 3.43607,4.436645 1.35682,1.565561 2.88068,2.506443 4.8522,3.08483 2.30091,0.46024 4.50056,-0.295011 6.61975,-1.122368 2.29016,-0.945991 4.61407,-1.866487 7.07958,-2.238243 0.51774,-0.07806 1.04157,-0.108233 1.56235,-0.162351 2.80131,-0.158972 5.57219,0.447744 8.0766,1.712527 0.49932,0.252163 0.96846,0.560091 1.45269,0.840136 1.72662,1.143088 3.19205,2.62164 4.25119,4.40617 0.38836,0.654336 0.7522,1.495118 1.07002,2.190607 0.47393,1.116581 0.83929,2.281058 1.0637,3.473519 0.43375,1.050396 -2.30325,2.801622 -2.31345,1.00789 0.0284,-1.548545 -0.14747,-3.09105 -0.25124,-4.634534 -0.0406,-1.496197 -0.28872,-3.008127 -0.0898,-4.498636 0.74125,-2.606596 3.38517,-3.504507 5.56519,-4.709845 2.45073,-0.929111 5.07312,-1.021739 7.6584,-0.877409 3.17857,0.297831 6.36426,0.479568 9.55444,0.585647 2.67885,0.05476 5.34088,-0.208343 7.93586,-0.87096 1.22668,-0.490228 2.62993,-0.831451 3.69616,-1.657112 0.21636,-0.167545 -0.92975,0.516416 -0.76497,0.297942 0.36583,-0.485048 0.94046,-0.769387 1.41069,-1.154081 0,0 2.31495,-0.933805 2.31495,-0.933805 v 0 c -0.46384,0.390263 -0.89134,0.828347 -1.39153,1.17079 -2.27813,1.559652 -4.63552,3.021597 -7.29001,3.823562 -2.60657,0.622176 -5.26982,0.871755 -7.95078,0.794766 -3.19368,-0.115305 -6.38255,-0.304247 -9.56653,-0.581739 -2.57529,-0.114459 -5.19167,0.0035 -7.60668,1.000818 0.42054,-0.268708 0.83547,-0.546396 1.26161,-0.80613 0.27143,-0.165439 -0.54186,0.333999 -0.79734,0.523155 -0.78976,0.584743 -1.43642,1.287794 -1.7002,2.252544 -0.26289,1.465797 0.0287,2.981351 0.0382,4.460544 0.10498,1.540822 0.29587,3.077086 0.30384,4.622139 0.003,0.113101 0.10077,0.271944 0.01,0.339304 -3.09269,2.291463 -2.23787,2.180971 -2.34617,1.074933 -0.16559,-1.186526 -0.51698,-2.341266 -0.967,-3.449508 -0.30497,-0.687067 -0.6533,-1.518764 -1.03079,-2.165384 -1.02726,-1.759656 -2.4722,-3.204345 -4.17149,-4.318243 -0.47807,-0.272855 -0.94132,-0.57348 -1.43421,-0.818563 -2.48927,-1.237771 -5.2399,-1.789507 -8.01109,-1.599144 -3.10496,0.365363 -5.76408,1.197271 -8.61821,2.463884 -2.16737,0.817147 -4.41027,1.54255 -6.74176,1.002819 -1.99138,-0.623562 -3.5524,-1.608283 -4.92298,-3.203821 -1.26172,-1.396095 -2.35151,-2.9209 -3.4864,-4.418791 0,0 2.23935,-1.344504 2.23935,-1.344504 z"
       inkscape:connector-curvature="0" />
    <text
       xml:space="preserve"
       style="font-style:normal;font-variant:normal;font-weight:normal;font-stretch:normal;font-size:10.58333302px;line-height:1.25;font-family:Inconsolata;-inkscape-font-specification:Inconsolata;letter-spacing:0px;word-spacing:0px;fill:#ff0000;fill-opacity:1;stroke:none;stroke-width:0.26458332"
       x="84.225693"
       y="12.308328"
       id="text832"><tspan
         sodipodi:role="line"
         x="84.225693"
         y="12.308328"
         style="fill:#ff0000;stroke-width:0.26458332"
         id="tspan834">Group 2:</tspan><tspan
         sodipodi:role="line"
         x="84.225693"
         y="25.537495"
         style="fill:#ff0000;stroke-width:0.26458332"
         id="tspan838">optional</tspan><tspan
         sodipodi:role="line"
         x="84.225693"
         y="38.766659"
         style="fill:#ff0000;stroke-width:0.26458332"
         id="tspan844">white space</tspan></text>
    <text
       id="text856"
       y="104.47152"
       x="18.520832"
       style="font-style:normal;font-variant:normal;font-weight:normal;font-stretch:normal;font-size:10.58333302px;line-height:1.25;font-family:Inconsolata;-inkscape-font-specification:Inconsolata;letter-spacing:0px;word-spacing:0px;fill:#ff0000;fill-opacity:1;stroke:none;stroke-width:0.26458332"
       xml:space="preserve"><tspan
         id="tspan854"
         style="fill:#ff0000;stroke-width:0.26458332"
         y="104.47152"
         x="18.520832"
         sodipodi:role="line">Group 1:</tspan><tspan
         style="fill:#ff0000;stroke-width:0.26458332"
         y="117.70068"
         x="18.520832"
         sodipodi:role="line"
         id="tspan862">2-4 digits</tspan></text>
    <text
       xml:space="preserve"
       style="font-style:normal;font-variant:normal;font-weight:normal;font-stretch:normal;font-size:10.58333302px;line-height:1.25;font-family:Inconsolata;-inkscape-font-specification:Inconsolata;letter-spacing:0px;word-spacing:0px;fill:#ff0000;fill-opacity:1;stroke:none;stroke-width:0.26458332"
       x="151.25346"
       y="104.47152"
       id="text868"><tspan
         sodipodi:role="line"
         x="151.25346"
         y="104.47152"
         style="fill:#ff0000;stroke-width:0.26458332"
         id="tspan864">Group 3:</tspan><tspan
         id="tspan866"
         sodipodi:role="line"
         x="151.25346"
         y="117.70068"
         style="fill:#ff0000;stroke-width:0.26458332">khz or mhz</tspan></text>
    <path
       style="opacity:0.95999995;vector-effect:none;fill:#0000ff;fill-opacity:1;stroke:none;stroke-width:2;stroke-linecap:butt;stroke-linejoin:miter;stroke-miterlimit:4;stroke-dasharray:none;stroke-dashoffset:0;stroke-opacity:1;paint-order:stroke fill markers"
       id="path870"
       d="m -10.212994,76.19879 c 0.7609408,2.235076 1.2086825,4.55916 1.6934687,6.865437 0.879121,4.184282 2.0845132,8.279882 3.5090931,12.307798 1.2370617,3.338311 2.7374834,6.591215 4.63556795,9.609335 1.2807808,2.03655 1.94092235,2.80812 3.40513635,4.7228 2.5751924,3.13213 5.5717323,5.89311 8.9274179,8.17266 2.130625,1.44736 3.047714,1.86606 5.307222,3.08176 3.538719,1.61686 7.281807,2.83936 11.143109,3.39144 2.224019,0.31799 3.11368,0.25966 5.34334,0.2905 5.442164,-0.24695 10.714794,-1.74645 16.038012,-2.78074 3.980257,-0.66942 8.016012,-1.18619 12.062187,-1.01672 2.553195,0.10694 3.758333,0.35407 6.284373,0.72872 3.952909,0.72886 7.801472,1.95302 11.452275,3.63356 2.030431,0.93465 2.702227,1.36118 4.62852,2.44254 2.384949,1.44507 4.658601,3.10449 6.301399,5.39244 0.784918,1.09317 0.900329,1.46789 1.454269,2.64282 0.587679,1.51289 0.919816,3.11101 0.989801,4.73032 -0.0968,1.18177 -1.648317,2.71663 -2.865821,2.08314 -0.535903,-0.26232 -0.822703,-0.8171 -1.014307,-1.35311 -0.461306,-1.54355 0.189778,-2.87212 0.921404,-4.20531 1.657755,-2.4819 3.867631,-4.54567 6.374648,-6.15719 0.689367,-0.44312 1.415323,-0.82657 2.122985,-1.23986 4.043444,-2.42941 8.418404,-3.94582 13.039394,-4.78626 2.65368,-0.48263 3.90553,-0.55094 6.60948,-0.82056 7.99703,-0.60119 15.98594,0.15006 23.90845,1.19842 8.41555,1.28436 16.73648,3.08203 25.15808,4.3299 5.39387,0.7759 10.87283,1.05533 16.29103,0.33718 3.35932,-0.44526 4.25918,-0.79232 7.50619,-1.65178 3.54937,-1.10879 6.91905,-2.6837 10.14134,-4.5277 0.37885,-0.2168 0.7245,-0.4871 1.08386,-0.73486 3.77728,-2.60433 2.18891,-1.44573 5.77837,-4.27078 3.47508,-2.94464 6.65316,-6.28446 8.97278,-10.23172 1.46794,-2.49798 1.57922,-3.15308 2.58507,-5.84873 1.2116,-3.967395 1.79304,-8.086699 1.57562,-12.234278 -0.12598,-2.40325 -0.34134,-3.241762 -0.74702,-5.58592 -0.77376,-3.65992 -1.98354,-7.199133 -3.46798,-10.625913 0,0 2.17418,-1.220991 2.17418,-1.220991 v 0 c 1.46459,3.460263 2.6589,7.028831 3.42927,10.712506 0.407,2.370698 0.61912,3.198849 0.74752,5.629023 0.22053,4.173961 -0.35023,8.321014 -1.55155,12.319703 -0.99917,2.72527 -1.10265,3.37518 -2.57182,5.90264 -2.30977,3.97356 -5.484,7.34199 -8.96321,10.30925 -0.93627,0.74232 -1.85051,1.51331 -2.8088,2.22698 -5.52158,4.11205 -11.69181,7.44142 -18.22992,9.60039 -3.26596,0.84517 -4.1398,1.18006 -7.51644,1.61029 -5.42721,0.69149 -10.90975,0.39332 -16.30811,-0.39168 -8.41771,-1.26006 -16.73774,-3.05484 -25.15309,-4.32855 -7.9321,-1.033 -15.93108,-1.76304 -23.93303,-1.11374 -4.26131,0.44637 -8.45304,1.00192 -12.52966,2.38896 -2.93634,0.99907 -1.72803,1.32175 -2.93786,0.9319 -0.7049,0.40437 -1.427648,0.7791 -2.114694,1.21311 -2.485155,1.56987 -4.668621,3.587 -6.330106,6.01595 -0.706414,1.25777 -1.399784,2.50841 -0.967978,3.98408 0.156731,0.45066 0.395208,0.96923 0.892529,1.11837 0.856941,-0.32523 -0.169264,0.0593 -2.048814,1.20811 -0.04438,0.0271 0.107765,-0.005 0.152966,-0.0308 0.179245,-0.10201 0.2203,-0.40289 0.270574,-0.56828 -0.01267,-1.59732 -0.306205,-3.17893 -0.868106,-4.67657 -0.526,-1.15371 -0.63804,-1.53304 -1.395545,-2.60645 -1.60306,-2.27159 -3.855098,-3.90774 -6.199394,-5.34505 -1.907135,-1.07423 -2.584638,-1.50513 -4.595159,-2.43303 -3.629422,-1.67507 -7.458866,-2.88858 -11.393212,-3.59882 -2.546075,-0.36718 -3.695904,-0.60258 -6.267897,-0.69714 -4.043537,-0.14865 -8.07425,0.38442 -12.049376,1.0642 -5.33346,1.05147 -10.623534,2.55496 -16.084307,2.75165 -2.28006,-0.0475 -3.083234,0.008 -5.355904,-0.33309 -3.872214,-0.58107 -7.624044,-1.81915 -11.16811,-3.46283 -2.264231,-1.22741 -3.187576,-1.6537 -5.3239149,-3.11112 -3.3695099,-2.29869 -6.3820295,-5.07567 -8.97245611,-8.2242 -1.49557952,-1.9522 -2.11597989,-2.67009 -3.42726989,-4.74478 -1.912371,-3.0257 -3.4346944,-6.283173 -4.6918512,-9.629425 -1.4445805,-4.027815 -2.6558973,-8.127558 -3.5735759,-12.30952 -0.500937,-2.283089 -0.951814,-4.594172 -1.778218,-6.787234 0,0 2.293575,-1.263171 2.293575,-1.263171 z"
       inkscape:connector-curvature="0" />
    <text
       xml:space="preserve"
       style="font-style:normal;font-variant:normal;font-weight:normal;font-stretch:normal;font-size:10.58333302px;line-height:1.25;font-family:Inconsolata;-inkscape-font-specification:Inconsolata;letter-spacing:0px;word-spacing:0px;fill:#0000ff;fill-opacity:1;stroke:none;stroke-width:0.26458332"
       x="71.4375"
       y="153.24306"
       id="text874"><tspan
         sodipodi:role="line"
         id="tspan872"
         x="71.4375"
         y="153.24306"
         style="fill:#0000ff;stroke-width:0.26458332">Group 0</tspan><tspan
         sodipodi:role="line"
         x="71.4375"
         y="166.47223"
         style="fill:#0000ff;stroke-width:0.26458332"
         id="tspan876">All inside</tspan></text>
  </g>
</svg>
